<?xml version="1.0" encoding="utf-8" ?><!-- created by svgstack.com | Attribution is required. --><svg xmlns="http://www.w3.org/2000/svg" xmlns:xlink="http://www.w3.org/1999/xlink" width="1024" height="1024"><path fill="#FDC947" d="M823.526 628.78Q826.458 629.042 829.398 629.182C829.476 639.591 830.531 653.683 829.163 663.681L828.889 664.895C824.627 672.837 821.353 681.583 817.77 689.871Q810.309 707.09 802.361 724.089C800.066 729.054 797.754 735.894 794.464 740.217L794.468 696.097C794.404 686.6 793.759 676.798 794.792 667.358C795.331 662.424 796.422 657.522 798.32 652.925C802.951 641.709 812.494 633.452 823.526 628.78Z"/><path fill="#152954" d="M943.99 407.217C945.903 412.029 943.859 428.185 943.966 434.29C916.161 447.357 887.919 459.445 860.084 472.422C853.324 475.573 846.748 479.076 840.032 482.309C839.639 475.161 839.982 467.829 839.996 460.661C841.678 459.742 844.18 458.63 845.064 456.979C843.966 455.836 842.838 455.808 841.322 455.419C842.36 454.307 843.27 453.649 844.628 452.956C851.09 449.662 858.312 447.322 864.991 444.412Q891.515 432.764 917.688 420.346C926.431 416.188 935.748 412.282 943.99 407.217Z"/><path fill="#BE3724" d="M829.163 663.681C833.072 669.706 835.842 677.094 838.828 683.659Q846.702 700.799 854.13 718.138C857.206 725.519 859.818 734.32 864.622 740.715Q864.931 750.864 865.011 761.017Q847.019 760.859 829.028 761.158Q811.691 761.349 794.354 761.102Q793.964 750.657 794.464 740.217C797.754 735.894 800.066 729.054 802.361 724.089Q810.309 707.09 817.77 689.871C821.353 681.583 824.627 672.837 828.889 664.895L829.163 663.681Z"/><path fill="#E26524" d="M794.464 740.217C797.754 735.894 800.066 729.054 802.361 724.089Q810.309 707.09 817.77 689.871C821.353 681.583 824.627 672.837 828.889 664.895C830.888 674.283 829.08 685.435 829.01 695.074L829.028 761.158Q811.691 761.349 794.354 761.102Q793.964 750.657 794.464 740.217Z"/><path fill="#E19126" d="M823.417 468.397L823.901 468.025L824.715 467.416C829.429 463.822 834.292 462.053 839.996 460.661C839.982 467.829 839.639 475.161 840.032 482.309C840.463 502.185 840.194 522.113 840.231 541.995L840.384 629.362C852.822 639.927 863.048 649.746 864.424 666.875C865.107 675.378 864.575 684.211 864.545 692.749Q864.463 716.733 864.622 740.715C859.818 734.32 857.206 725.519 854.13 718.138Q846.702 700.799 838.828 683.659C835.842 677.094 833.072 669.706 829.163 663.681C830.531 653.683 829.476 639.591 829.398 629.182Q826.458 629.042 823.526 628.78C825.302 624.611 822.922 504.818 823.708 488.661C824.323 485.787 824.532 470.584 823.417 468.397Z"/><path fill="#2C4174" d="M511.634 217.694C545.641 231.746 578.922 247.532 612.519 262.519L754.312 324.774C786.109 338.729 817.771 353.083 849.741 366.632C881.2 379.965 913.155 392.487 943.99 407.217C935.748 412.282 926.431 416.188 917.688 420.346Q891.515 432.764 864.991 444.412C858.312 447.322 851.09 449.662 844.628 452.956C843.27 453.649 842.36 454.307 841.322 455.419C842.838 455.808 843.966 455.836 845.064 456.979C844.18 458.63 841.678 459.742 839.996 460.661C834.292 462.053 829.429 463.822 824.715 467.416L823.901 468.025L823.417 468.397C820.552 467.559 817.667 466.851 814.766 466.152C807.01 465.189 799.167 462.998 791.515 461.333L748.775 452.036L608.475 421.741L572.246 414.29C563.026 412.344 553.875 410.072 544.547 408.687C534.397 413.149 522.619 416.413 511.427 415.975L510.146 415.733C510.221 415.688 510.312 415.663 510.37 415.597C512.551 413.137 511.453 378.039 511.242 372.364L511.853 371.966C512.941 359.481 512.006 344.421 511.988 331.653L511.894 252.061C511.835 240.77 510.29 228.897 511.634 217.694Z"/><path fill="#E19126" d="M511.853 371.966C525.146 372.962 544.794 374.179 553.913 385.34C556.016 387.914 557.02 395.726 558.369 396.122C557.03 396.436 547.052 406.738 544.547 408.687C534.397 413.149 522.619 416.413 511.427 415.975L510.146 415.733C510.221 415.688 510.312 415.663 510.37 415.597C512.551 413.137 511.453 378.039 511.242 372.364L511.853 371.966Z"/><path fill="#FDC947" d="M544.547 408.687C547.052 406.738 557.03 396.436 558.369 396.122Q700.029 424.892 841.322 455.419C842.838 455.808 843.966 455.836 845.064 456.979C844.18 458.63 841.678 459.742 839.996 460.661C834.292 462.053 829.429 463.822 824.715 467.416L823.901 468.025L823.417 468.397C820.552 467.559 817.667 466.851 814.766 466.152C807.01 465.189 799.167 462.998 791.515 461.333L748.775 452.036L608.475 421.741L572.246 414.29C563.026 412.344 553.875 410.072 544.547 408.687Z"/><path fill="#18816C" d="M264.084 515.253Q290.087 526.298 315.937 537.697C327.384 542.866 338.638 548.456 350.027 553.75L419.232 585.27Q450.844 599.304 482.283 613.722C491.503 617.918 503.707 622.669 512.117 627.546C518.273 627.198 543.855 613.937 551.547 610.459L696.859 545.178L738.967 526.204C745.689 523.177 752.943 519.095 760.005 517.137C760.326 539.873 760.644 562.506 760.499 585.252L760.101 631.485C760.063 648.49 762.664 668.273 757.195 684.552C753.756 694.79 746.279 704.088 738.675 711.559C697.794 751.726 613.064 776.086 558.265 792.058L529.132 800.423C523.643 801.978 517.714 804.088 512.055 804.77C506.07 802.801 499.807 801.415 493.735 799.681L440.552 784.668C393.571 770.97 319.376 744.193 284.935 708.78C264.9 688.181 263.811 674.657 264.178 647.386L264.127 554.758L264.084 515.253Z"/><path fill="#17B193" d="M264.541 573.758Q346.033 625 428.212 675.126C444.693 685.159 461.074 695.397 477.667 705.241C489.252 712.113 501.779 718.445 512.494 726.634Q511.689 765.699 512.055 804.77C506.07 802.801 499.807 801.415 493.735 799.681L440.552 784.668C393.571 770.97 319.376 744.193 284.935 708.78C264.9 688.181 263.811 674.657 264.178 647.386C265.424 644.701 264.453 582.136 264.541 573.758Z"/><defs><linearGradient id="gradient_0" gradientUnits="userSpaceOnUse" x1="481.87552" y1="443.05072" x2="570.74066" y2="705.44495"><stop offset="0" stop-color="#104D4A"/><stop offset="1" stop-color="#106351"/></linearGradient></defs><path fill="url(#gradient_0)" d="M264.084 515.253Q290.087 526.298 315.937 537.697C327.384 542.866 338.638 548.456 350.027 553.75L419.232 585.27Q450.844 599.304 482.283 613.722C491.503 617.918 503.707 622.669 512.117 627.546C518.273 627.198 543.855 613.937 551.547 610.459L696.859 545.178L738.967 526.204C745.689 523.177 752.943 519.095 760.005 517.137C760.326 539.873 760.644 562.506 760.499 585.252C754.569 589.089 748.133 592.349 741.953 595.783L707.021 615.094C680.207 629.967 653.76 645.474 627.106 660.625L544.58 708.359C533.936 714.396 523.625 721.221 512.559 726.453C511.937 717.039 512.316 707.654 512.404 698.231L512.564 660.031C502.683 656.015 493.062 651.211 483.41 646.673L435.787 624.29Q389.937 603.035 343.858 582.282C317.372 570.061 291.156 557.274 264.405 545.633C264.423 548.698 264.399 551.702 264.127 554.758L264.084 515.253Z"/><path fill="#4B649F" d="M80.5113 407.607C89.6512 402.729 100.954 399.117 110.663 394.952L181.75 364.122Q304.733 310.763 426.905 255.573L476.912 233.174C488.524 228.051 500.212 223.247 511.634 217.694C510.29 228.897 511.835 240.77 511.894 252.061L511.988 331.653C512.006 344.421 512.941 359.481 511.853 371.966L511.242 372.364C511.453 378.039 512.551 413.137 510.37 415.597C510.312 415.663 510.221 415.688 510.146 415.733L511.427 415.975C522.619 416.413 534.397 413.149 544.547 408.687C553.875 410.072 563.026 412.344 572.246 414.29L608.475 421.741L748.775 452.036L791.515 461.333C799.167 462.998 807.01 465.189 814.766 466.152C817.667 466.851 820.552 467.559 823.417 468.397C824.532 470.584 824.323 485.787 823.708 488.661Q804.783 497.849 785.51 506.283C777.093 510.043 768.709 514.087 760.005 517.137C752.943 519.095 745.689 523.177 738.967 526.204L696.859 545.178L551.547 610.459C543.855 613.937 518.273 627.198 512.117 627.546C503.707 622.669 491.503 617.918 482.283 613.722Q450.844 599.304 419.232 585.27L350.027 553.75C338.638 548.456 327.384 542.866 315.937 537.697Q290.087 526.298 264.084 515.253C258.123 511.379 250.332 508.919 243.742 506.134Q225.905 498.653 208.214 490.832L138.31 460.061C119.088 451.52 100.051 442.6 80.298 435.328C80.2286 426.117 79.9782 416.805 80.5113 407.607Z"/><path fill="#FDC947" d="M510.146 415.733C498.39 415.217 483.047 412.332 474.284 403.773C471.464 401.018 469.495 397.545 469.503 393.527C469.511 389.593 471.565 386.046 474.316 383.355C483.274 374.592 499.29 372.203 511.242 372.364C511.453 378.039 512.551 413.137 510.37 415.597C510.312 415.663 510.221 415.688 510.146 415.733Z"/><path fill="#2C4174" d="M80.298 435.328C80.2286 426.117 79.9782 416.805 80.5113 407.607C106.304 421.216 133.842 432.176 160.583 443.8Q218.873 468.987 276.8 494.998C321.558 514.956 366.597 534.425 411.149 554.827C444.578 570.136 477.788 586.905 511.997 600.388L511.597 483.204C511.539 460.805 511.791 438.367 511.427 415.975C522.619 416.413 534.397 413.149 544.547 408.687C553.875 410.072 563.026 412.344 572.246 414.29L608.475 421.741L748.775 452.036L791.515 461.333C799.167 462.998 807.01 465.189 814.766 466.152C817.667 466.851 820.552 467.559 823.417 468.397C824.532 470.584 824.323 485.787 823.708 488.661Q804.783 497.849 785.51 506.283C777.093 510.043 768.709 514.087 760.005 517.137C752.943 519.095 745.689 523.177 738.967 526.204L696.859 545.178L551.547 610.459C543.855 613.937 518.273 627.198 512.117 627.546C503.707 622.669 491.503 617.918 482.283 613.722Q450.844 599.304 419.232 585.27L350.027 553.75C338.638 548.456 327.384 542.866 315.937 537.697Q290.087 526.298 264.084 515.253C258.123 511.379 250.332 508.919 243.742 506.134Q225.905 498.653 208.214 490.832L138.31 460.061C119.088 451.52 100.051 442.6 80.298 435.328Z"/><path fill="#152954" d="M814.766 466.152C817.667 466.851 820.552 467.559 823.417 468.397C824.532 470.584 824.323 485.787 823.708 488.661Q804.783 497.849 785.51 506.283C777.093 510.043 768.709 514.087 760.005 517.137C752.943 519.095 745.689 523.177 738.967 526.204L696.859 545.178L551.547 610.459C543.855 613.937 518.273 627.198 512.117 627.546C511.642 618.515 511.922 609.356 511.977 600.311C519.173 598.564 526.102 595.304 532.933 592.503C547.716 586.442 562.299 579.9 576.943 573.514Q632.667 549.298 688.09 524.4C702.774 517.745 717.231 510.6 731.922 503.964C752.715 494.572 773.886 486.035 794.583 476.428C801.064 473.419 809.149 470.525 814.766 466.152Z"/></svg> 